<?xml version="1.0" encoding="iso-8859-1"?>
<!-- Uploaded to: SVG Repo, www.svgrepo.com, Generator: SVG Repo Mixer Tools -->
<svg height="800px" width="800px" version="1.1" id="Layer_1" xmlns="http://www.w3.org/2000/svg" xmlns:xlink="http://www.w3.org/1999/xlink" 
	 viewBox="0 0 512 512" xml:space="preserve">
<path style="fill:#FFFFFF;" d="M255.784,402.19C151.432,403.67,54.776,347.446,4.472,256.006
	c50.6-91.36,147.312-147.52,251.744-146.176c104.528-2.128,201.496,54.272,251.328,146.176
	C456.944,347.366,360.216,403.534,255.784,402.19z"/>
<g>
	<path style="fill:#AAC1CE;" d="M256.216,113.83c102.28-2.112,197.304,52.616,246.808,142.136
		c-50.248,88.992-145.008,143.512-247.2,142.224c-102.104,1.376-196.8-53.168-246.832-142.184
		c50.264-88.976,145.016-143.48,247.2-142.192 M256.192,105.814C149.416,103.974,50.552,161.934,0,256.006
		C50.312,350.11,149.088,408.11,255.784,406.182C362.568,408.038,461.448,350.086,512,256.006
		C461.68,161.91,362.904,103.918,256.216,105.83L256.192,105.814z"/>
	<circle style="fill:#AAC1CE;" cx="255.984" cy="255.998" r="113.2"/>
</g>
<circle style="fill:#25B6D2;" cx="255.984" cy="255.998" r="95.32"/>
<g style="opacity:0.5;">
	<circle style="fill:#FFFFFF;" cx="208.72" cy="203.03" r="24"/>
</g>
</svg>